<svg width="140" height="133" viewBox="0 0 140 133" fill="none" xmlns="http://www.w3.org/2000/svg">
<path d="M101.986 16.1014C111.327 20.69 123.176 20.9725 129.923 28.8269C136.695 36.7105 136.663 47.9713 138.148 58.2012C139.611 68.2768 141.258 78.3934 138.547 88.214C135.683 98.5861 130.073 108.027 122.307 115.567C114.096 123.54 104.305 130.445 92.9685 132.467C81.5488 134.504 70.2881 130.29 59.2296 126.818C47.6222 123.174 35.1276 120.405 26.7516 111.679C18.1599 102.728 16.2482 89.9126 12.5136 78.1478C8.21151 64.5958 -3.869 49.7062 3.14144 37.3035C10.4921 24.2988 31.4024 28.5723 44.6085 21.366C54.8132 15.7975 59.767 1.13326 71.3782 0.0678897C83.079 -1.00572 91.4659 10.9337 101.986 16.1014Z" fill="#FC1503"/>
<path d="M80.8409 45.9602V35.8182H128.625V45.9602H110.812V94H98.6534V45.9602H80.8409Z" fill="white"/>
<path d="M56.4 74.5333L49.8 66H45.4C42.969 66 41 67.9093 41 70.2667V93.7333C41 96.0907 42.969 98 45.4 98H49.8L56.4 89.4667H67.4V74.5333H56.4Z" fill="#8B8A8A"/>
<path d="M47.6 66H49.25V98H47.6V66Z" fill="#CEC6C6"/>
<path d="M105.411 71.04L102.6 72.4H93.8V78.8H102.6L105.411 80.16C106.142 80.512 107 80 107 79.2053V71.9947C107 71.2 106.142 70.6827 105.411 71.04Z" fill="#8B8A8A"/>
<path d="M74 57.4667H89.4V72.4H74V57.4667Z" fill="#9E9E9E"/>
<path opacity="0.5" d="M56.125 74.5333H57.775V89.4667H56.125V74.5333Z" fill="#787676"/>
<path d="M61.2125 74.5333H62.8625V89.4667H61.2125V74.5333Z" fill="#CEC6C6"/>
<path d="M65.2 68.1333C74.9202 68.1333 82.8 60.4923 82.8 51.0667C82.8 41.641 74.9202 34 65.2 34C55.4798 34 47.6 41.641 47.6 51.0667C47.6 60.4923 55.4798 68.1333 65.2 68.1333Z" fill="#949494"/>
<path d="M94.35 68.1333C101.033 68.1333 106.45 62.8801 106.45 56.4C106.45 49.9199 101.033 44.6667 94.35 44.6667C87.6674 44.6667 82.25 49.9199 82.25 56.4C82.25 62.8801 87.6674 68.1333 94.35 68.1333Z" fill="#949494"/>
<path d="M96 95.8667H67.4C64.969 95.8667 63 93.9573 63 91.6V72.4C63 70.0427 64.969 68.1333 67.4 68.1333H96C98.431 68.1333 100.4 70.0427 100.4 72.4V91.6C100.4 93.9573 98.431 95.8667 96 95.8667Z" fill="#949494"/>
<path d="M68.5 82C69.105 82 69.6 82.48 69.6 83.0667C69.6 83.6533 69.105 84.1333 68.5 84.1333C67.895 84.1333 67.4 83.6533 67.4 83.0667C67.4 82.48 67.895 82 68.5 82ZM68.5 80.9333C67.2845 80.9333 66.3 81.888 66.3 83.0667C66.3 84.2453 67.2845 85.2 68.5 85.2C69.7155 85.2 70.7 84.2453 70.7 83.0667C70.7 81.888 69.7155 80.9333 68.5 80.9333Z" fill="#CEC6C6"/>
<path d="M68.5 86.2667C69.105 86.2667 69.6 86.7467 69.6 87.3333C69.6 87.92 69.105 88.4 68.5 88.4C67.895 88.4 67.4 87.92 67.4 87.3333C67.4 86.7467 67.895 86.2667 68.5 86.2667ZM68.5 85.2C67.2845 85.2 66.3 86.1547 66.3 87.3333C66.3 88.512 67.2845 89.4667 68.5 89.4667C69.7155 89.4667 70.7 88.512 70.7 87.3333C70.7 86.1547 69.7155 85.2 68.5 85.2Z" fill="#CEC6C6"/>
<path d="M74 88.9333C73.0925 88.9333 72.35 88.2133 72.35 87.3333V83.0667C72.35 82.1867 73.0925 81.4667 74 81.4667H91.6C92.5075 81.4667 93.25 82.1867 93.25 83.0667V87.3333C93.25 88.2133 92.5075 88.9333 91.6 88.9333H74Z" fill="#949494"/>
<path d="M91.6 82.2667C92.0565 82.2667 92.425 82.624 92.425 83.0667V87.3333C92.425 87.776 92.0565 88.1333 91.6 88.1333H74C73.5435 88.1333 73.175 87.776 73.175 87.3333V83.0667C73.175 82.624 73.5435 82.2667 74 82.2667H91.6ZM91.6 80.6667H74C72.636 80.6667 71.525 81.744 71.525 83.0667V87.3333C71.525 88.656 72.636 89.7333 74 89.7333H91.6C92.964 89.7333 94.075 88.656 94.075 87.3333V83.0667C94.075 81.744 92.964 80.6667 91.6 80.6667Z" fill="#CEC6C6"/>
<path d="M65.2 63.0667C72.0345 63.0667 77.575 57.6941 77.575 51.0667C77.575 44.4393 72.0345 39.0667 65.2 39.0667C58.3655 39.0667 52.825 44.4393 52.825 51.0667C52.825 57.6941 58.3655 63.0667 65.2 63.0667Z" fill="#949494"/>
<path d="M65.2 39.8667C71.569 39.8667 76.75 44.8907 76.75 51.0667C76.75 57.2427 71.569 62.2667 65.2 62.2667C58.831 62.2667 53.65 57.2427 53.65 51.0667C53.65 44.8907 58.831 39.8667 65.2 39.8667ZM65.2 38.2667C57.9125 38.2667 52 44 52 51.0667C52 58.1333 57.9125 63.8667 65.2 63.8667C72.4875 63.8667 78.4 58.1333 78.4 51.0667C78.4 44 72.4875 38.2667 65.2 38.2667Z" fill="#CEC6C6"/>
<path d="M94.35 63.0667C98.147 63.0667 101.225 60.0819 101.225 56.4C101.225 52.7181 98.147 49.7333 94.35 49.7333C90.553 49.7333 87.475 52.7181 87.475 56.4C87.475 60.0819 90.553 63.0667 94.35 63.0667Z" fill="#949494"/>
<path d="M94.35 50.5333C97.6885 50.5333 100.4 53.1627 100.4 56.4C100.4 59.6373 97.6885 62.2667 94.35 62.2667C91.0115 62.2667 88.3 59.6373 88.3 56.4C88.3 53.1627 91.0115 50.5333 94.35 50.5333ZM94.35 48.9333C90.0985 48.9333 86.65 52.2773 86.65 56.4C86.65 60.5227 90.0985 63.8667 94.35 63.8667C98.6015 63.8667 102.05 60.5227 102.05 56.4C102.05 52.2773 98.6015 48.9333 94.35 48.9333Z" fill="#CEC6C6"/>
<path d="M65.2 55.3333C67.63 55.3333 69.6 53.4231 69.6 51.0667C69.6 48.7103 67.63 46.8 65.2 46.8C62.7699 46.8 60.8 48.7103 60.8 51.0667C60.8 53.4231 62.7699 55.3333 65.2 55.3333Z" fill="#636262"/>
<path d="M94.35 60.6667C96.7801 60.6667 98.75 58.7564 98.75 56.4C98.75 54.0436 96.7801 52.1333 94.35 52.1333C91.92 52.1333 89.95 54.0436 89.95 56.4C89.95 58.7564 91.92 60.6667 94.35 60.6667Z" fill="#636262"/>
<path d="M68.5 84.1333C69.1075 84.1333 69.6 83.6558 69.6 83.0667C69.6 82.4776 69.1075 82 68.5 82C67.8925 82 67.4 82.4776 67.4 83.0667C67.4 83.6558 67.8925 84.1333 68.5 84.1333Z" fill="url(#paint0_linear_1_45)"/>
<path d="M68.5 88.4C69.1075 88.4 69.6 87.9224 69.6 87.3333C69.6 86.7442 69.1075 86.2667 68.5 86.2667C67.8925 86.2667 67.4 86.7442 67.4 87.3333C67.4 87.9224 67.8925 88.4 68.5 88.4Z" fill="url(#paint1_linear_1_45)"/>
<path d="M71.12 39.84L51.68 77.44V96H38V77.44L18.56 39.84H34.08L44.96 63.36L55.76 39.84H71.12Z" fill="white"/>
<path d="M101.712 16.1014C111.12 20.69 123.055 20.9725 129.85 28.8269C136.671 36.7105 136.639 47.9713 138.135 58.2012C139.609 68.2768 141.268 78.3935 138.536 88.214C135.651 98.5861 130.002 108.027 122.18 115.567C113.909 123.54 104.048 130.445 92.6301 132.467C81.1283 134.504 69.7866 130.29 58.6485 126.818C46.9576 123.174 34.3731 120.405 25.9369 111.679C17.2834 102.728 15.3579 89.9126 11.5964 78.1478C7.26339 64.5958 -4.90403 49.7062 2.15685 37.3035C9.56042 24.2988 30.6212 28.5723 43.9222 21.366C54.2004 15.7975 59.1898 1.13326 70.8845 0.0678897C82.6695 -1.00572 91.1167 10.9337 101.712 16.1014Z" fill="#FC1503" fill-opacity="0.3"/>
<defs>
<linearGradient id="paint0_linear_1_45" x1="68.5" y1="81.8667" x2="68.5" y2="84.0096" gradientUnits="userSpaceOnUse">
<stop stop-color="#FF1744"/>
<stop offset="1" stop-color="#D50000"/>
</linearGradient>
<linearGradient id="paint1_linear_1_45" x1="68.5" y1="86.1333" x2="68.5" y2="88.2773" gradientUnits="userSpaceOnUse">
<stop stop-color="#76FF03"/>
<stop offset="1" stop-color="#64DD17"/>
</linearGradient>
</defs>
</svg>
